<svg xmlns="http://www.w3.org/2000/svg" viewBox="0 0 16 16" fill="white">
  <path fill-rule="evenodd" d="M8 0C3.58 0 0 3.58 0 8c0 2.25 1.13 4.23 2.85 5.44H.3v1.47h5.23v-.96H3.42C2.17 11.98 1.3 10.06 1.3 8c0-2.75 2.23-5 5-5s5 2.25 5 5c0 2.05-1.07 3.83-2.67 4.87h2.55v-.96H8.53c1.75-1.21 2.85-3.34 2.85-5.84C11.38 3.58 7.75 0 8 0z"/>
  <path d="M12.55 7.34c.04.13.06.27.06.41 0 1.53-1.18 2.8-2.67 2.96v-5.9c1.49.16 2.67 1.43 2.67 2.93z"/>
  <path fill-rule="evenodd" d="M8.53 4.66h3.4c-.17-.5-.42-.96-.73-1.37H8.53v1.37zm-2.2 4.02h-.92v-2.67H5c-.31.41-.56.87-.73 1.37h-.92v2.67h1.92v-1.42c.18-.14.39-.25.6-.34z"/>
</svg>
